<svg width="28" height="28" viewBox="0 0 28 28" fill="none" xmlns="http://www.w3.org/2000/svg">
<path d="M13.8333 10.4438C13.0049 10.4438 12.3333 9.74735 12.3333 8.88824C12.3333 8.02913 13.0049 7.33268 13.8333 7.33268C14.6617 7.33268 15.3333 8.02913 15.3333 8.88824C15.3333 9.74735 14.6617 10.4438 13.8333 10.4438ZM23.3333 16.666H11.3333L14.3333 12.5179L15.3333 13.5549L18.3333 9.40676L23.3333 16.666ZM24.6666 21.9993H8.66663C7.19387 21.9993 5.99996 20.8054 5.99996 19.3327V3.33268C5.99996 1.85992 7.19387 0.666016 8.66663 0.666016H24.6666C26.1394 0.666016 27.3333 1.85992 27.3333 3.33268V19.3327C27.3333 20.8054 26.1394 21.9993 24.6666 21.9993ZM8.66663 3.33268V19.3327H24.6666V3.33268H8.66663ZM3.33329 8.66602H0.666626V24.666C0.666626 26.1388 1.86053 27.3327 3.33329 27.3327H19.3333V24.666H3.33329V8.66602Z" fill="#23A6F0"/>
<path d="M13.8333 10.4438C13.0049 10.4438 12.3333 9.74735 12.3333 8.88824C12.3333 8.02913 13.0049 7.33268 13.8333 7.33268C14.6617 7.33268 15.3333 8.02913 15.3333 8.88824C15.3333 9.74735 14.6617 10.4438 13.8333 10.4438ZM23.3333 16.666H11.3333L14.3333 12.5179L15.3333 13.5549L18.3333 9.40676L23.3333 16.666ZM24.6666 21.9993H8.66663C7.19387 21.9993 5.99996 20.8054 5.99996 19.3327V3.33268C5.99996 1.85992 7.19387 0.666016 8.66663 0.666016H24.6666C26.1394 0.666016 27.3333 1.85992 27.3333 3.33268V19.3327C27.3333 20.8054 26.1394 21.9993 24.6666 21.9993ZM8.66663 3.33268V19.3327H24.6666V3.33268H8.66663ZM3.33329 8.66602H0.666626V24.666C0.666626 26.1388 1.86053 27.3327 3.33329 27.3327H19.3333V24.666H3.33329V8.66602Z" fill="#23A6F0"/>
<path fill-rule="evenodd" clip-rule="evenodd" d="M13.8333 10.4438C13.0049 10.4438 12.3333 9.74735 12.3333 8.88824C12.3333 8.02913 13.0049 7.33268 13.8333 7.33268C14.6617 7.33268 15.3333 8.02913 15.3333 8.88824C15.3333 9.74735 14.6617 10.4438 13.8333 10.4438ZM23.3333 16.666H11.3333L14.3333 12.5179L15.3333 13.5549L18.3333 9.40676L23.3333 16.666ZM24.6666 21.9993H8.66663C7.19387 21.9993 5.99996 20.8054 5.99996 19.3327V3.33268C5.99996 1.85992 7.19387 0.666016 8.66663 0.666016H24.6666C26.1394 0.666016 27.3333 1.85992 27.3333 3.33268V19.3327C27.3333 20.8054 26.1394 21.9993 24.6666 21.9993ZM8.66663 3.33268V19.3327H24.6666V3.33268H8.66663ZM3.33329 8.66602H0.666626V24.666C0.666626 26.1388 1.86053 27.3327 3.33329 27.3327H19.3333V24.666H3.33329V8.66602Z" fill="#23A6F0"/>
<path d="M13.8333 10.4438C13.0049 10.4438 12.3333 9.74735 12.3333 8.88824C12.3333 8.02913 13.0049 7.33268 13.8333 7.33268C14.6617 7.33268 15.3333 8.02913 15.3333 8.88824C15.3333 9.74735 14.6617 10.4438 13.8333 10.4438ZM23.3333 16.666H11.3333L14.3333 12.5179L15.3333 13.5549L18.3333 9.40676L23.3333 16.666ZM24.6666 21.9993H8.66663C7.19387 21.9993 5.99996 20.8054 5.99996 19.3327V3.33268C5.99996 1.85992 7.19387 0.666016 8.66663 0.666016H24.6666C26.1394 0.666016 27.3333 1.85992 27.3333 3.33268V19.3327C27.3333 20.8054 26.1394 21.9993 24.6666 21.9993ZM8.66663 3.33268V19.3327H24.6666V3.33268H8.66663ZM3.33329 8.66602H0.666626V24.666C0.666626 26.1388 1.86053 27.3327 3.33329 27.3327H19.3333V24.666H3.33329V8.66602Z" fill="#23A6F0"/>
</svg>
