<svg width="23" height="23" viewBox="0 0 23 23" fill="none" xmlns="http://www.w3.org/2000/svg">
<path d="M20.1367 8.41866C20.079 8.24885 19.9729 8.09964 19.8314 7.98945C19.6899 7.87926 19.5193 7.81292 19.3405 7.79861L14.1114 7.3831L11.8485 2.37409C11.7765 2.21276 11.6593 2.07573 11.511 1.97955C11.3628 1.88336 11.1899 1.83213 11.0132 1.83203C10.8365 1.83193 10.6636 1.88298 10.5153 1.979C10.3669 2.07502 10.2496 2.21192 10.1773 2.37317L7.91452 7.3831L2.68537 7.79861C2.50968 7.81253 2.34172 7.87677 2.20158 7.98364C2.06144 8.09052 1.95506 8.23551 1.89517 8.40126C1.83527 8.56701 1.8244 8.74651 1.86385 8.91828C1.9033 9.09005 1.99139 9.24682 2.11761 9.36983L5.98191 13.1369L4.61523 19.0549C4.57374 19.234 4.58704 19.4215 4.65341 19.593C4.71978 19.7645 4.83616 19.9121 4.98745 20.0166C5.13874 20.1211 5.31794 20.1777 5.50182 20.1791C5.68569 20.1805 5.86574 20.1266 6.0186 20.0244L11.0129 16.6949L16.0073 20.0244C16.1635 20.1282 16.3478 20.1816 16.5353 20.1774C16.7228 20.1733 16.9045 20.1119 17.056 20.0014C17.2076 19.8909 17.3217 19.7367 17.3829 19.5595C17.4442 19.3822 17.4497 19.1904 17.3987 19.01L15.7211 13.1397L19.8817 9.39551C20.1541 9.1497 20.2541 8.76629 20.1367 8.41866V8.41866Z" fill="#F3CD03"/>
</svg>
